<?xml version="1.0" standalone="no"?>
<!DOCTYPE svg PUBLIC "-//W3C//DTD SVG 20010904//EN"
 "http://www.w3.org/TR/2001/REC-SVG-20010904/DTD/svg10.dtd">
<svg version="1.0" xmlns="http://www.w3.org/2000/svg"
 width="1024.000000pt" height="1024.000000pt" viewBox="0 0 1024.000000 1024.000000"
 preserveAspectRatio="xMidYMid meet">

<g transform="translate(0.000000,1024.000000) scale(0.100000,-0.100000)"
fill="#000000" stroke="none">
<path d="M8923 9148 c-12 -7 -562 -550 -1222 -1206 -1305 -1297 -1235 -1222
-1211 -1310 21 -80 119 -127 187 -89 26 15 2350 2323 2401 2385 32 40 37 52
37 98 0 48 -4 57 -37 90 -30 30 -45 37 -85 41 -28 2 -57 -2 -70 -9z"/>
<path d="M1600 6696 c0 -1086 4 -1977 8 -1980 5 -3 167 151 361 342 l352 347
0 1193 c-1 655 1 1192 3 1192 2 0 156 -163 342 -362 187 -200 458 -489 603
-643 146 -154 339 -359 430 -455 91 -97 252 -268 356 -380 105 -113 280 -299
390 -415 275 -289 594 -629 890 -950 137 -148 315 -340 395 -425 301 -320 461
-492 669 -718 l213 -232 614 0 614 0 0 1643 0 1642 444 445 c245 245 461 465
481 490 33 41 36 49 32 90 -7 61 -61 110 -121 110 -23 -1 -51 -6 -63 -13 -12
-7 -102 -91 -200 -187 -98 -96 -358 -350 -578 -565 -220 -214 -497 -484 -615
-600 -118 -116 -248 -242 -287 -280 l-73 -68 0 -819 c0 -450 -4 -818 -8 -818
-5 0 -91 91 -193 202 -101 111 -294 320 -428 463 -383 408 -469 499 -936 1000
-908 973 -1483 1588 -1820 1945 -121 129 -333 354 -470 500 -137 146 -253 268
-259 272 -6 4 -266 8 -578 8 l-568 0 0 -1974z"/>
<path d="M3097 5923 c-4 -3 -7 -616 -7 -1360 l0 -1354 34 3 c30 3 109 78 680
644 355 353 646 647 646 653 0 15 -31 48 -619 671 -543 575 -711 750 -721 750
-4 0 -10 -3 -13 -7z"/>
</g>
</svg>
